<svg width="100" height="100" viewBox="0 0 100 100" fill="none" xmlns="http://www.w3.org/2000/svg">
<path d="M71.0151 61.4239C70.1195 60.6217 68.7434 60.7 67.9456 61.5934C63.4108 66.6608 56.8716 69.5652 49.9999 69.5652C43.1303 69.5652 36.589 66.6608 32.0542 61.5934C31.2521 60.7 29.8803 60.6217 28.9847 61.4239C28.089 62.2239 28.0151 63.5978 28.8151 64.4934C34.1738 70.4804 41.8955 73.913 49.9999 73.913C58.1064 73.913 65.8282 70.4782 71.1847 64.4934C71.9847 63.5978 71.9086 62.2239 71.0151 61.4239Z" fill="#268A9B"/>
<path fill-rule="evenodd" clip-rule="evenodd" d="M0 50C0 22.4304 22.4304 0 50 0C77.5696 0 100 22.4304 100 50C100 58.8093 97.7099 67.0939 93.6937 74.2896C93.0343 75.4711 91.4553 75.6961 90.4426 74.7987C89.6507 74.0968 89.4788 72.9319 89.9905 72.0057C93.5978 65.4758 95.6522 57.9735 95.6522 50C95.6522 24.8261 75.1739 4.34783 50 4.34783C24.8261 4.34783 4.34783 24.8261 4.34783 50C4.34783 75.1739 24.8261 95.6522 50 95.6522C63.2273 95.6522 75.1583 89.9984 83.5033 80.9805C84.3328 80.0841 85.7314 79.9768 86.6454 80.7868C87.5268 81.5679 87.6277 82.913 86.8313 83.7806C77.6851 93.7447 64.5591 100 50 100C22.4304 100 0 77.5696 0 50Z" fill="#268A9B"/>
<path d="M67.3915 34.7826C61.3981 34.7826 56.522 39.6587 56.522 45.6522C56.522 46.8522 57.4959 47.8261 58.6959 47.8261C59.8959 47.8261 60.8698 46.8522 60.8698 45.6522C60.8698 42.0565 63.7959 39.1304 67.3915 39.1304C70.9872 39.1304 73.9133 42.0565 73.9133 45.6522C73.9133 46.8522 74.8872 47.8261 76.0872 47.8261C77.2872 47.8261 78.2611 46.8522 78.2611 45.6522C78.2611 39.6587 73.385 34.7826 67.3915 34.7826Z" fill="#268A9B"/>
<path d="M39.1306 45.6522C39.1306 46.8522 40.1045 47.8261 41.3045 47.8261C42.5045 47.8261 43.4784 46.8522 43.4784 45.6522C43.4784 39.6587 38.6023 34.7826 32.6088 34.7826C26.6153 34.7826 21.7393 39.6587 21.7393 45.6522C21.7393 46.8522 22.7132 47.8261 23.9132 47.8261C25.1132 47.8261 26.0871 46.8522 26.0871 45.6522C26.0871 42.0565 29.0132 39.1304 32.6088 39.1304C36.2045 39.1304 39.1306 42.0565 39.1306 45.6522Z" fill="#268A9B"/>
</svg>
