<svg width="74" height="100" viewBox="0 0 74 100" fill="none" xmlns="http://www.w3.org/2000/svg">
<path d="M71.5996 31.3689L66.9044 25.6729C66.2598 24.8908 65.8676 23.9448 65.7715 22.937L65.0635 15.5891C64.6958 11.7714 61.6577 8.73338 57.84 8.36565L50.4922 7.65841C49.4843 7.56151 48.5383 7.16936 47.7563 6.52545L42.0602 1.82957C39.1008 -0.609533 34.8047 -0.609533 31.8453 1.82957L26.1492 6.52545C25.3679 7.16936 24.4219 7.56151 23.4133 7.65841L16.0654 8.36565C12.2477 8.73338 9.21046 11.7714 8.84197 15.5891L8.13472 22.937C8.03783 23.9448 7.64568 24.8908 7.00176 25.6729L2.30589 31.3689C-0.133214 34.3284 -0.133214 38.6245 2.30589 41.5839L7.00176 47.28C7.64568 48.062 8.03783 49.008 8.13472 50.0159L8.84197 57.3637C9.2097 61.1814 12.2477 64.2187 16.0654 64.5872L20.5568 65.0198L9.88566 90.5194C9.59651 91.2136 9.72697 91.9949 10.2267 92.5579C10.7264 93.1202 11.4855 93.343 12.2073 93.1378L21.4655 90.5239C21.5059 90.5125 21.5449 90.53 21.5632 90.5629L26.1995 98.9933C26.5444 99.6212 27.1891 99.9996 27.8986 99.9996C27.9322 99.9996 27.9657 99.9988 28.0001 99.9973C28.75 99.9592 29.3985 99.506 29.6953 98.8071L40.9616 71.8831C41.3438 71.6634 41.7115 71.4109 42.061 71.1232L47.757 66.4281C48.478 65.833 49.3409 65.4569 50.2618 65.3257L60.466 89.7084L53.2448 87.6698C51.8716 87.283 50.4334 87.8849 49.7445 89.1339L46.1289 95.7081L41.3385 84.2602C41.0218 83.5042 40.1536 83.1486 39.3976 83.4645C38.6423 83.7803 38.286 84.6493 38.6026 85.4046L44.214 98.8148C44.5077 99.506 45.1554 99.9592 45.9062 99.9973C45.9405 99.9988 45.9741 100 46.0076 100C46.7172 100 47.3618 99.6212 47.7067 98.9933L52.3423 90.5644C52.3614 90.53 52.401 90.514 52.4399 90.5239L61.6967 93.1378C62.4199 93.3422 63.1798 93.1202 63.6788 92.5579C64.1785 91.9949 64.3089 91.2144 64.019 90.5178L53.3486 65.019L57.84 64.5864C61.6577 64.2187 64.6958 61.1814 65.0635 57.3637L65.7715 50.0151C65.8676 49.0073 66.2598 48.062 66.9044 47.28L71.5996 41.5839C74.0394 38.6245 74.0394 34.3284 71.5996 31.3689ZM27.7773 95.7081L24.161 89.1323C23.4728 87.8842 22.0331 87.2822 20.6606 87.6698L13.4402 89.7076L23.6437 65.3257C24.5653 65.4569 25.4282 65.833 26.1492 66.4274L31.8453 71.1232C33.3253 72.3432 35.1388 72.9528 36.9531 72.9528C37.0698 72.9528 37.1858 72.9497 37.3025 72.9444L27.7773 95.7081ZM69.3115 39.6979L64.6164 45.394C63.5941 46.633 62.973 48.1329 62.8189 49.7313L62.1117 57.0791C61.8798 59.4869 59.964 61.4027 57.5562 61.6346L51.1018 62.2564C51.0766 62.2579 51.0506 62.2602 51.0255 62.264L50.2084 62.3426C48.6092 62.4967 47.1093 63.1178 45.8703 64.1393L40.1742 68.8344C38.3081 70.3733 35.5981 70.3733 33.732 68.8344L28.0359 64.1393C26.7969 63.1178 25.297 62.496 23.6979 62.3426L22.8769 62.2633C22.854 62.2602 22.8319 62.2587 22.809 62.2572L16.35 61.6346C13.9422 61.4027 12.0265 59.4869 11.7945 57.0791L11.0873 49.732C10.9332 48.1329 10.3121 46.633 9.28981 45.394L4.5947 39.6979C3.05586 37.831 3.05586 35.1211 4.5947 33.2549L9.28981 27.5588C10.3121 26.3198 10.9332 24.8199 11.0873 23.2208L11.7945 15.8729C12.0265 13.4651 13.9422 11.5494 16.35 11.3174L23.6979 10.6102C25.297 10.4561 26.7969 9.83506 28.0359 8.81349L33.732 4.11838C34.6651 3.34934 35.8095 2.96406 36.9531 2.96406C38.0967 2.96406 39.2412 3.34858 40.1742 4.11838L45.8703 8.81349C47.1093 9.83506 48.6092 10.4569 50.2084 10.6102L57.5562 11.3174C59.964 11.5494 61.8798 13.4651 62.1117 15.8729L62.8189 23.2208C62.973 24.8199 63.5941 26.3198 64.6164 27.5588L69.3115 33.2549C70.8496 35.1218 70.8496 37.831 69.3115 39.6979Z" fill="#268A9B"/>
<path d="M36.9536 13.3116C35.9633 13.3116 34.9669 13.3742 33.9903 13.4993C33.1786 13.6031 32.6041 14.3462 32.7078 15.1579C32.8116 15.9705 33.5555 16.5442 34.3665 16.4412C35.2179 16.3321 36.0884 16.2772 36.9536 16.2772C48.0917 16.2772 57.1531 25.3386 57.1531 36.4767C57.1531 47.6148 48.0909 56.6754 36.9536 56.6754C25.8155 56.6754 16.7541 47.614 16.7541 36.4759C16.7541 28.5314 21.4385 21.295 28.6879 18.0396C29.4349 17.7046 29.769 16.8265 29.4333 16.0796C29.0976 15.3319 28.2195 14.9985 27.4733 15.3342C19.1596 19.0672 13.7886 27.3657 13.7886 36.4759C13.7886 49.2497 24.1805 59.6409 36.9536 59.6409C49.7267 59.6409 60.1186 49.2497 60.1186 36.4759C60.1186 23.7028 49.7267 13.3116 36.9536 13.3116Z" fill="#268A9B"/>
<path d="M22.2262 34.7586C20.4585 36.5264 20.4585 39.4034 22.2262 41.1711L28.7028 47.6485C29.5596 48.5045 30.6979 48.976 31.9094 48.976C33.1202 48.976 34.2593 48.5045 35.1161 47.6485L49.2541 33.5097C51.0218 31.7412 51.0218 28.8649 49.2541 27.0964C47.4864 25.3287 44.6093 25.3287 42.8408 27.0964L31.9094 38.0286L28.6387 34.7586C26.871 32.9909 23.9939 32.9909 22.2262 34.7586ZM31.9094 41.6091C32.3023 41.6091 32.6792 41.4527 32.9577 41.1742L44.9381 29.1937C45.55 28.5819 46.5449 28.5826 47.1568 29.1937C47.7686 29.8056 47.7686 30.8013 47.1568 31.4124L33.0187 45.5512C32.7227 45.8472 32.3283 46.0105 31.9094 46.0105C31.4898 46.0105 31.0961 45.8472 30.8001 45.5512L24.3227 39.0746C23.7116 38.4627 23.7116 37.4671 24.3227 36.856C24.6287 36.55 25.0308 36.3967 25.4328 36.3967C25.8341 36.3967 26.2362 36.55 26.5414 36.8552L30.8604 41.1742C31.1388 41.4527 31.5157 41.6091 31.9094 41.6091Z" fill="#268A9B"/>
</svg>
