<svg width="56" height="100" viewBox="0 0 56 100" fill="none" xmlns="http://www.w3.org/2000/svg">
<path d="M49.0144 32.1205L55.4252 18.3199C55.6348 17.8686 55.6465 17.2986 55.4557 16.8322C55.265 16.3658 54.9016 16.0762 54.5072 16.0762H22.3154V12.9639C23.4282 11.6004 24.1282 9.63223 24.1282 7.44727C24.1282 3.34082 21.6559 0 18.6172 0C15.5784 0 13.1062 3.34082 13.1062 7.44727C13.1062 9.62969 13.8044 11.5957 14.9149 12.959V79.1338H8.42887C6.9311 79.1338 5.71255 80.7805 5.71255 82.8045V88.1047H3.12501C1.62723 88.1047 0.408691 89.7514 0.408691 91.7754V96.3289C0.408691 98.3529 1.62723 99.9996 3.12501 99.9996H36.1782C37.6759 99.9996 38.8945 98.3529 38.8945 96.3289V91.7754C38.8945 89.7514 37.6759 88.1047 36.1782 88.1047H33.5906V82.8047C33.5906 80.7807 32.3721 79.134 30.8743 79.134H22.3154V48.1646H38.7673C39.3661 48.1646 39.8513 47.5088 39.8513 46.6998C39.8513 45.8908 39.3661 45.235 38.7673 45.235H22.3154V19.0061H52.5468L46.8164 31.3416C46.5952 31.8178 46.5952 32.423 46.8164 32.8994L52.5468 45.235H43.8908C43.292 45.235 42.8068 45.8908 42.8068 46.6998C42.8068 47.5088 43.292 48.1646 43.8908 48.1646H54.507C54.9015 48.1646 55.2648 47.8752 55.4556 47.4086C55.6464 46.942 55.6347 46.3723 55.4251 45.9209L49.0144 32.1205ZM18.6172 2.92969C20.4605 2.92969 21.9602 4.95625 21.9602 7.44727C21.9602 8.95234 21.4123 10.2869 20.5722 11.1084C19.4416 12.218 17.8795 12.235 16.7284 11.1723C15.851 10.3572 15.2742 8.9918 15.2742 7.44727C15.2742 4.95625 16.7738 2.92969 18.6172 2.92969ZM31.4226 82.8047V88.1049H21.1812C20.5824 88.1049 20.0972 88.7607 20.0972 89.5697C20.0972 90.3787 20.5824 91.0346 21.1812 91.0346H36.1783C36.4756 91.0346 36.7267 91.3738 36.7267 91.7756V96.3291C36.7267 96.7309 36.4756 97.0701 36.1783 97.0701H3.12501C2.82771 97.0701 2.57666 96.7309 2.57666 96.3291V91.7756C2.57666 91.3738 2.82771 91.0346 3.12501 91.0346H16.0533C16.6521 91.0346 17.1373 90.3787 17.1373 89.5697C17.1373 88.7607 16.6521 88.1049 16.0533 88.1049H7.88052V82.8047C7.88052 82.4029 8.13157 82.0637 8.42887 82.0637H30.8743C31.1714 82.0637 31.4226 82.4031 31.4226 82.8047ZM17.0828 79.134V14.6029C18.075 14.9906 19.155 14.9914 20.1475 14.6047V79.134H17.0828Z" fill="#268A9B"/>
</svg>
