<svg width="100" height="100" viewBox="0 0 100 100" fill="none" xmlns="http://www.w3.org/2000/svg">
<g clip-path="url(#clip0)">
<path d="M84.375 19.5312C83.2969 19.5312 82.4219 20.4062 82.4219 21.4844C82.4219 22.5625 83.2969 23.4375 84.375 23.4375C85.4531 23.4375 86.3281 22.5625 86.3281 21.4844C86.3281 20.4062 85.4531 19.5312 84.375 19.5312Z" fill="#268A9B"/>
<path d="M15.625 19.5312C14.5469 19.5312 13.6719 20.4062 13.6719 21.4844C13.6719 22.5625 14.5469 23.4375 15.625 23.4375C16.7031 23.4375 17.5781 22.5625 17.5781 21.4844C17.5781 20.4062 16.7031 19.5312 15.625 19.5312Z" fill="#268A9B"/>
<path d="M98.047 42.9689H95.711C94.981 37.3431 93.2169 31.9819 90.4485 27.0108C89.9237 26.0687 88.7345 25.7298 87.7919 26.2546C86.8495 26.7794 86.5108 27.9688 87.0356 28.9112C89.4786 33.2985 91.0681 38.0183 91.7724 42.9689H90.2345C89.1558 42.9689 88.2813 43.8433 88.2813 44.922V52.7345C88.2813 53.8132 89.1558 54.6876 90.2345 54.6876H98.047C99.1257 54.6876 100 53.8132 100 52.7345V44.922C100 43.8433 99.1257 42.9689 98.047 42.9689ZM96.0938 50.7814H92.1876V46.8751H93.9606C93.9612 46.8751 93.962 46.8751 93.9626 46.8751C93.9634 46.8751 93.964 46.8751 93.9647 46.8751H96.0938V50.7814Z" fill="#268A9B"/>
<path d="M71.4807 57.1525C71.4795 57.1223 71.4787 57.092 71.4762 57.0617C71.4727 57.0203 71.467 56.9795 71.4609 56.9389C71.4572 56.9139 71.4543 56.8889 71.4494 56.8639C71.4404 56.816 71.4287 56.7691 71.4164 56.7225C71.4117 56.7047 71.408 56.6869 71.4027 56.6693C71.3854 56.6109 71.365 56.5537 71.3424 56.4977C71.3398 56.4916 71.3381 56.4852 71.3356 56.4791C71.3086 56.4139 71.2783 56.3504 71.2447 56.2891L51.7139 20.5477C51.3715 19.9211 50.7143 19.5312 50 19.5312C49.2857 19.5312 48.6285 19.9211 48.2861 20.5479L28.7553 56.2893C28.7217 56.3506 28.6914 56.4141 28.6645 56.4793C28.6619 56.4854 28.6602 56.4916 28.6576 56.4979C28.635 56.5539 28.6146 56.6111 28.5973 56.6695C28.592 56.6871 28.5883 56.7049 28.5836 56.7227C28.5711 56.7693 28.5596 56.816 28.5506 56.8641C28.5459 56.8889 28.543 56.9139 28.5391 56.9391C28.533 56.9797 28.5273 57.0205 28.5238 57.0619C28.5213 57.0922 28.5203 57.1225 28.5193 57.1527C28.5184 57.1773 28.5156 57.2016 28.5156 57.2266C28.5156 57.2395 28.5174 57.2518 28.5176 57.2646C28.5182 57.2953 28.5201 57.3258 28.5223 57.3564C28.5248 57.3953 28.5279 57.434 28.5328 57.4723C28.5363 57.4992 28.5406 57.526 28.5451 57.5529C28.5521 57.5951 28.5605 57.6369 28.5703 57.6781C28.5758 57.7014 28.5818 57.7246 28.5883 57.7477C28.6006 57.7922 28.6146 57.8359 28.6299 57.8791C28.6342 57.8914 28.6369 57.9039 28.6416 57.9162L35.6854 76.582C35.1203 76.8621 34.5977 77.2342 34.1385 77.6932C33.0314 78.8002 32.4219 80.2715 32.4219 81.8359C32.4219 84.382 34.0549 86.5531 36.3281 87.3594V98.0469C36.3281 99.1256 37.2025 100 38.2813 100H61.7188C62.7975 100 63.6719 99.1256 63.6719 98.0469V87.3627C64.4861 87.0754 65.2328 86.6076 65.8617 85.9787C66.9686 84.8717 67.5781 83.4004 67.5781 81.8359C67.5781 79.5365 66.2463 77.5434 64.3139 76.5846L71.3586 57.9162C71.3633 57.9039 71.366 57.8914 71.3703 57.8791C71.3855 57.8359 71.3996 57.7922 71.4119 57.7477C71.4184 57.7246 71.4242 57.7014 71.4299 57.6781C71.4397 57.6369 71.4479 57.5951 71.4551 57.5529C71.4596 57.526 71.4641 57.4992 71.4674 57.4723C71.4723 57.434 71.4754 57.3953 71.4779 57.3564C71.4799 57.3258 71.482 57.2953 71.4826 57.2646C71.4828 57.252 71.4846 57.2395 71.4846 57.2266C71.4844 57.2016 71.4816 57.1773 71.4807 57.1525ZM50 55.2734C51.077 55.2734 51.9531 56.1496 51.9531 57.2266C51.9531 58.3035 51.077 59.1797 50 59.1797C48.923 59.1797 48.0469 58.3035 48.0469 57.2266C48.0469 56.1496 48.923 55.2734 50 55.2734ZM59.7656 96.0938H40.2344V87.6953H59.7656V96.0938ZM63.0994 83.2164C62.7303 83.5857 62.2398 83.7891 61.7188 83.7891H38.2813C37.2043 83.7891 36.3281 82.9129 36.3281 81.8359C36.3281 81.3148 36.5314 80.8244 36.9006 80.4555C37.2699 80.0861 37.7602 79.8828 38.2813 79.8828H61.7057C61.71 79.8828 61.7143 79.8834 61.7186 79.8834C61.7207 79.8834 61.723 79.8832 61.7252 79.8832C62.7992 79.8867 63.6721 80.7611 63.6721 81.8359C63.6719 82.357 63.4686 82.8475 63.0994 83.2164ZM60.3682 75.9766H39.6318L33.2934 59.1797H38.2813C39.36 59.1797 40.2344 58.3053 40.2344 57.2266C40.2344 56.1479 39.36 55.2734 38.2813 55.2734H33.7617L48.0469 29.1316V51.7031C45.7736 52.5094 44.1406 54.6803 44.1406 57.2266C44.1406 60.4574 46.7691 63.0859 50 63.0859C53.2309 63.0859 55.8594 60.4574 55.8594 57.2266C55.8594 54.6805 54.2264 52.5094 51.9531 51.7031V29.1316L66.2383 55.2734H61.7188C60.64 55.2734 59.7656 56.1479 59.7656 57.2266C59.7656 58.3053 60.64 59.1797 61.7188 59.1797H66.7066L60.3682 75.9766Z" fill="#268A9B"/>
<path d="M12.208 26.2545C11.2654 25.7295 10.076 26.0682 9.55137 27.0108C6.7832 31.9819 5.01895 37.343 4.28906 42.9688H1.95312C0.874414 42.9688 0 43.8432 0 44.9219V52.7344C0 53.8131 0.874414 54.6875 1.95312 54.6875H9.76562C10.8443 54.6875 11.7188 53.8131 11.7188 52.7344V44.9219C11.7188 43.8432 10.8443 42.9688 9.76562 42.9688H8.22754C8.93203 38.0182 10.5213 33.2985 12.9643 28.9112C13.4891 27.9688 13.1506 26.7793 12.208 26.2545ZM7.8125 50.7813H3.90625V46.875H6.03535C6.03613 46.875 6.03672 46.875 6.0375 46.875C6.03809 46.875 6.03887 46.875 6.03945 46.875H7.8125V50.7813Z" fill="#268A9B"/>
<path d="M94.1406 0C91.5945 0 89.4234 1.63301 88.6172 3.90625H55.8594V1.95312C55.8594 0.874414 54.985 0 53.9062 0H46.0938C45.015 0 44.1406 0.874414 44.1406 1.95312V3.90625H11.3828C10.5766 1.63301 8.40547 0 5.85938 0C2.62852 0 0 2.62852 0 5.85938C0 9.09023 2.62852 11.7188 5.85938 11.7188C8.40547 11.7188 10.5766 10.0857 11.3828 7.8125H31.0184C26.8525 9.55566 23.0322 11.8186 19.8877 14.4695C19.0629 15.1648 18.958 16.3971 19.6533 17.2217C20.0396 17.6801 20.5918 17.916 21.1475 17.916C21.592 17.916 22.0389 17.7652 22.4053 17.4562C28.0092 12.732 36.0064 9.35801 44.1406 8.22637V9.76562C44.1406 10.8443 45.015 11.7188 46.0938 11.7188H53.9062C54.985 11.7188 55.8594 10.8443 55.8594 9.76562V8.22637C63.9936 9.35801 71.9908 12.732 77.5947 17.4561C77.9611 17.765 78.408 17.916 78.8525 17.9158C79.4084 17.9158 79.9605 17.6799 80.3467 17.2215C81.0422 16.3971 80.9371 15.1648 80.1123 14.4695C76.9678 11.8186 73.1475 9.55566 68.9816 7.8125H88.6172C89.4234 10.0857 91.5943 11.7188 94.1406 11.7188C97.3715 11.7188 100 9.09023 100 5.85938C100 2.62852 97.3715 0 94.1406 0ZM5.85938 7.8125C4.78242 7.8125 3.90625 6.93633 3.90625 5.85938C3.90625 4.78242 4.78242 3.90625 5.85938 3.90625C6.93633 3.90625 7.8125 4.78242 7.8125 5.85938C7.8125 6.93633 6.93633 7.8125 5.85938 7.8125ZM51.9531 5.85938V6.03516V7.8125H48.0469V6.03516V5.85938V3.90625H51.9531V5.85938ZM94.1406 7.8125C93.0637 7.8125 92.1875 6.93633 92.1875 5.85938C92.1875 4.78242 93.0637 3.90625 94.1406 3.90625C95.2176 3.90625 96.0938 4.78242 96.0938 5.85938C96.0938 6.93633 95.2176 7.8125 94.1406 7.8125Z" fill="#268A9B"/>
</g>
<defs>
<clipPath id="clip0">
<rect width="100" height="100" fill="white"/>
</clipPath>
</defs>
</svg>
