<svg width="86" height="23" viewBox="0 0 86 23" fill="none" xmlns="http://www.w3.org/2000/svg">
<path d="M0.76 22V0.999999H5.08V18.07H14.65V22H0.76ZM27.5781 22.3C26.0381 22.3 24.6181 22.03 23.3181 21.49C22.0181 20.95 20.8881 20.2 19.9281 19.24C18.9881 18.26 18.2481 17.11 17.7081 15.79C17.1881 14.47 16.9281 13.02 16.9281 11.44C16.9281 9.88 17.1881 8.44 17.7081 7.12C18.2481 5.8 18.9881 4.66 19.9281 3.7C20.8881 2.72 22.0181 1.96 23.3181 1.42C24.6181 0.879998 26.0381 0.609998 27.5781 0.609998C29.0981 0.609998 30.5081 0.879998 31.8081 1.42C33.1081 1.96 34.2281 2.72 35.1681 3.7C36.1281 4.68 36.8681 5.83 37.3881 7.15C37.9281 8.47 38.1981 9.9 38.1981 11.44C38.1981 13 37.9281 14.44 37.3881 15.76C36.8681 17.08 36.1281 18.23 35.1681 19.21C34.2281 20.19 33.1081 20.95 31.8081 21.49C30.5081 22.03 29.0981 22.3 27.5781 22.3ZM27.5781 18.19C28.7781 18.19 29.8481 17.9 30.7881 17.32C31.7281 16.74 32.4581 15.94 32.9781 14.92C33.5181 13.9 33.7881 12.74 33.7881 11.44C33.7881 10.14 33.5181 8.99 32.9781 7.99C32.4581 6.97 31.7281 6.17 30.7881 5.59C29.8481 4.99 28.7781 4.69 27.5781 4.69C26.3581 4.69 25.2781 4.98 24.3381 5.56C23.3981 6.14 22.6581 6.94 22.1181 7.96C21.5981 8.98 21.3381 10.14 21.3381 11.44C21.3381 12.76 21.5981 13.93 22.1181 14.95C22.6581 15.95 23.3981 16.74 24.3381 17.32C25.2781 17.9 26.3581 18.19 27.5781 18.19ZM51.903 22.3C50.283 22.3 48.803 22.03 47.463 21.49C46.123 20.93 44.963 20.16 43.983 19.18C43.003 18.2 42.243 17.06 41.703 15.76C41.163 14.44 40.893 13 40.893 11.44C40.893 9.92 41.173 8.51 41.733 7.21C42.293 5.89 43.073 4.74 44.073 3.76C45.073 2.78 46.243 2.02 47.583 1.48C48.943 0.939999 50.433 0.669999 52.053 0.669999C53.713 0.669999 55.263 0.999999 56.703 1.66C58.143 2.32 59.273 3.16 60.093 4.18L57.423 7C56.623 6.24 55.773 5.66 54.873 5.26C53.993 4.84 53.043 4.63 52.023 4.63C50.743 4.63 49.593 4.93 48.573 5.53C47.573 6.11 46.783 6.92 46.203 7.96C45.623 8.98 45.333 10.14 45.333 11.44C45.333 12.74 45.633 13.91 46.233 14.95C46.853 15.99 47.683 16.82 48.723 17.44C49.763 18.06 50.913 18.37 52.173 18.37C53.113 18.37 53.963 18.19 54.723 17.83C55.483 17.45 56.083 16.96 56.523 16.36C56.983 15.74 57.213 15.05 57.213 14.29H51.753V10.63H61.383C61.443 10.97 61.483 11.39 61.503 11.89C61.523 12.37 61.533 12.75 61.533 13.03C61.533 14.85 61.103 16.46 60.243 17.86C59.403 19.26 58.253 20.35 56.793 21.13C55.353 21.91 53.723 22.3 51.903 22.3ZM74.8047 22.3C73.2647 22.3 71.8447 22.03 70.5447 21.49C69.2447 20.95 68.1147 20.2 67.1547 19.24C66.2147 18.26 65.4747 17.11 64.9347 15.79C64.4147 14.47 64.1547 13.02 64.1547 11.44C64.1547 9.88 64.4147 8.44 64.9347 7.12C65.4747 5.8 66.2147 4.66 67.1547 3.7C68.1147 2.72 69.2447 1.96 70.5447 1.42C71.8447 0.879998 73.2647 0.609998 74.8047 0.609998C76.3247 0.609998 77.7347 0.879998 79.0347 1.42C80.3347 1.96 81.4547 2.72 82.3947 3.7C83.3547 4.68 84.0947 5.83 84.6147 7.15C85.1547 8.47 85.4247 9.9 85.4247 11.44C85.4247 13 85.1547 14.44 84.6147 15.76C84.0947 17.08 83.3547 18.23 82.3947 19.21C81.4547 20.19 80.3347 20.95 79.0347 21.49C77.7347 22.03 76.3247 22.3 74.8047 22.3ZM74.8047 18.19C76.0047 18.19 77.0747 17.9 78.0147 17.32C78.9547 16.74 79.6847 15.94 80.2047 14.92C80.7447 13.9 81.0147 12.74 81.0147 11.44C81.0147 10.14 80.7447 8.99 80.2047 7.99C79.6847 6.97 78.9547 6.17 78.0147 5.59C77.0747 4.99 76.0047 4.69 74.8047 4.69C73.5847 4.69 72.5047 4.98 71.5647 5.56C70.6247 6.14 69.8847 6.94 69.3447 7.96C68.8247 8.98 68.5647 10.14 68.5647 11.44C68.5647 12.76 68.8247 13.93 69.3447 14.95C69.8847 15.95 70.6247 16.74 71.5647 17.32C72.5047 17.9 73.5847 18.19 74.8047 18.19Z" fill="black"/>
</svg>
